<mxfile host="65bd71144e">
    <diagram id="HvF4fxgpVaZ52O9-ORSI" name="Page-1">
        <mxGraphModel dx="1013" dy="409" grid="1" gridSize="10" guides="1" tooltips="1" connect="1" arrows="1" fold="1" page="1" pageScale="1" pageWidth="850" pageHeight="1100" math="0" shadow="0">
            <root>
                <mxCell id="0"/>
                <mxCell id="1" parent="0"/>
                <mxCell id="4" style="edgeStyle=none;html=1;" edge="1" parent="1" source="2" target="3">
                    <mxGeometry relative="1" as="geometry"/>
                </mxCell>
                <mxCell id="2" value="START" style="ellipse;whiteSpace=wrap;html=1;" vertex="1" parent="1">
                    <mxGeometry x="365" y="30" width="120" height="80" as="geometry"/>
                </mxCell>
                <mxCell id="6" style="edgeStyle=none;html=1;" edge="1" parent="1" source="3" target="5">
                    <mxGeometry relative="1" as="geometry"/>
                </mxCell>
                <mxCell id="3" value="check(a: {2, 10, 12, 3, 7, 4, 1} , p: 0, q: 5)" style="whiteSpace=wrap;html=1;" vertex="1" parent="1">
                    <mxGeometry x="305" y="160" width="240" height="60" as="geometry"/>
                </mxCell>
                <mxCell id="5" value="p == q" style="rhombus;whiteSpace=wrap;html=1;" vertex="1" parent="1">
                    <mxGeometry x="385" y="270" width="80" height="80" as="geometry"/>
                </mxCell>
                <mxCell id="7" value="false" style="text;html=1;align=center;verticalAlign=middle;resizable=0;points=[];autosize=1;strokeColor=none;fillColor=none;" vertex="1" parent="1">
                    <mxGeometry x="305" y="330" width="50" height="30" as="geometry"/>
                </mxCell>
                <mxCell id="8" value="p + 1 == q" style="rhombus;whiteSpace=wrap;html=1;" vertex="1" parent="1">
                    <mxGeometry x="385" y="390" width="80" height="80" as="geometry"/>
                </mxCell>
                <mxCell id="9" value="" style="edgeStyle=segmentEdgeStyle;endArrow=classic;html=1;curved=0;rounded=0;endSize=8;startSize=8;sourcePerimeterSpacing=0;targetPerimeterSpacing=0;" edge="1" parent="1" source="5" target="8">
                    <mxGeometry width="100" relative="1" as="geometry">
                        <mxPoint x="370" y="380" as="sourcePoint"/>
                        <mxPoint x="470" y="420" as="targetPoint"/>
                        <Array as="points">
                            <mxPoint x="345" y="310"/>
                            <mxPoint x="345" y="370"/>
                        </Array>
                    </mxGeometry>
                </mxCell>
                <mxCell id="21" style="edgeStyle=none;html=1;" edge="1" parent="1" source="10" target="14">
                    <mxGeometry relative="1" as="geometry"/>
                </mxCell>
                <mxCell id="10" value="check(a: {2, 10, 12, 3, 7, 4, 1} , p: 1, q: 4)" style="whiteSpace=wrap;html=1;" vertex="1" parent="1">
                    <mxGeometry x="305" y="510" width="240" height="60" as="geometry"/>
                </mxCell>
                <mxCell id="12" value="" style="edgeStyle=segmentEdgeStyle;endArrow=classic;html=1;curved=0;rounded=0;endSize=8;startSize=8;sourcePerimeterSpacing=0;targetPerimeterSpacing=0;" edge="1" parent="1">
                    <mxGeometry width="100" relative="1" as="geometry">
                        <mxPoint x="385" y="430" as="sourcePoint"/>
                        <mxPoint x="425" y="510" as="targetPoint"/>
                        <Array as="points">
                            <mxPoint x="345" y="430"/>
                            <mxPoint x="345" y="490"/>
                        </Array>
                    </mxGeometry>
                </mxCell>
                <mxCell id="13" value="false" style="text;html=1;align=center;verticalAlign=middle;resizable=0;points=[];autosize=1;strokeColor=none;fillColor=none;" vertex="1" parent="1">
                    <mxGeometry x="305" y="440" width="50" height="30" as="geometry"/>
                </mxCell>
                <mxCell id="14" value="p == q" style="rhombus;whiteSpace=wrap;html=1;" vertex="1" parent="1">
                    <mxGeometry x="385" y="600" width="80" height="80" as="geometry"/>
                </mxCell>
                <mxCell id="15" value="false" style="text;html=1;align=center;verticalAlign=middle;resizable=0;points=[];autosize=1;strokeColor=none;fillColor=none;" vertex="1" parent="1">
                    <mxGeometry x="305" y="660" width="50" height="30" as="geometry"/>
                </mxCell>
                <mxCell id="16" value="p + 1 == q" style="rhombus;whiteSpace=wrap;html=1;" vertex="1" parent="1">
                    <mxGeometry x="385" y="720" width="80" height="80" as="geometry"/>
                </mxCell>
                <mxCell id="17" value="" style="edgeStyle=segmentEdgeStyle;endArrow=classic;html=1;curved=0;rounded=0;endSize=8;startSize=8;sourcePerimeterSpacing=0;targetPerimeterSpacing=0;" edge="1" source="14" target="16" parent="1">
                    <mxGeometry width="100" relative="1" as="geometry">
                        <mxPoint x="370" y="710" as="sourcePoint"/>
                        <mxPoint x="470" y="750" as="targetPoint"/>
                        <Array as="points">
                            <mxPoint x="345" y="640"/>
                            <mxPoint x="345" y="700"/>
                        </Array>
                    </mxGeometry>
                </mxCell>
                <mxCell id="29" style="edgeStyle=none;html=1;" edge="1" parent="1" source="18" target="22">
                    <mxGeometry relative="1" as="geometry"/>
                </mxCell>
                <mxCell id="18" value="check(a: {2, 10, 12, 3, 7, 4, 1} , p: 2, q: 3)" style="whiteSpace=wrap;html=1;" vertex="1" parent="1">
                    <mxGeometry x="305" y="840" width="240" height="60" as="geometry"/>
                </mxCell>
                <mxCell id="19" value="" style="edgeStyle=segmentEdgeStyle;endArrow=classic;html=1;curved=0;rounded=0;endSize=8;startSize=8;sourcePerimeterSpacing=0;targetPerimeterSpacing=0;" edge="1" parent="1">
                    <mxGeometry width="100" relative="1" as="geometry">
                        <mxPoint x="385" y="760" as="sourcePoint"/>
                        <mxPoint x="425" y="840" as="targetPoint"/>
                        <Array as="points">
                            <mxPoint x="345" y="760"/>
                            <mxPoint x="345" y="820"/>
                        </Array>
                    </mxGeometry>
                </mxCell>
                <mxCell id="20" value="false" style="text;html=1;align=center;verticalAlign=middle;resizable=0;points=[];autosize=1;strokeColor=none;fillColor=none;" vertex="1" parent="1">
                    <mxGeometry x="305" y="770" width="50" height="30" as="geometry"/>
                </mxCell>
                <mxCell id="22" value="p == q" style="rhombus;whiteSpace=wrap;html=1;" vertex="1" parent="1">
                    <mxGeometry x="385" y="930" width="80" height="80" as="geometry"/>
                </mxCell>
                <mxCell id="23" value="false" style="text;html=1;align=center;verticalAlign=middle;resizable=0;points=[];autosize=1;strokeColor=none;fillColor=none;" vertex="1" parent="1">
                    <mxGeometry x="305" y="990" width="50" height="30" as="geometry"/>
                </mxCell>
                <mxCell id="24" value="p + 1 == q" style="rhombus;whiteSpace=wrap;html=1;" vertex="1" parent="1">
                    <mxGeometry x="385" y="1050" width="80" height="80" as="geometry"/>
                </mxCell>
                <mxCell id="25" value="" style="edgeStyle=segmentEdgeStyle;endArrow=classic;html=1;curved=0;rounded=0;endSize=8;startSize=8;sourcePerimeterSpacing=0;targetPerimeterSpacing=0;" edge="1" source="22" target="24" parent="1">
                    <mxGeometry width="100" relative="1" as="geometry">
                        <mxPoint x="370" y="1040" as="sourcePoint"/>
                        <mxPoint x="470" y="1080" as="targetPoint"/>
                        <Array as="points">
                            <mxPoint x="345" y="970"/>
                            <mxPoint x="345" y="1030"/>
                        </Array>
                    </mxGeometry>
                </mxCell>
                <mxCell id="27" value="" style="edgeStyle=segmentEdgeStyle;endArrow=classic;html=1;curved=0;rounded=0;endSize=8;startSize=8;sourcePerimeterSpacing=0;targetPerimeterSpacing=0;" edge="1" parent="1" source="24" target="30">
                    <mxGeometry width="100" relative="1" as="geometry">
                        <mxPoint x="385" y="1090" as="sourcePoint"/>
                        <mxPoint x="425" y="1170" as="targetPoint"/>
                        <Array as="points">
                            <mxPoint x="510" y="1090"/>
                            <mxPoint x="510" y="1150"/>
                            <mxPoint x="425" y="1150"/>
                        </Array>
                    </mxGeometry>
                </mxCell>
                <mxCell id="28" value="true" style="text;html=1;align=center;verticalAlign=middle;resizable=0;points=[];autosize=1;strokeColor=none;fillColor=none;" vertex="1" parent="1">
                    <mxGeometry x="515" y="1100" width="40" height="30" as="geometry"/>
                </mxCell>
                <mxCell id="32" style="edgeStyle=none;html=1;" edge="1" parent="1" source="30" target="31">
                    <mxGeometry relative="1" as="geometry"/>
                </mxCell>
                <mxCell id="30" value="7.5" style="shape=parallelogram;perimeter=parallelogramPerimeter;whiteSpace=wrap;html=1;fixedSize=1;" vertex="1" parent="1">
                    <mxGeometry x="365" y="1170" width="120" height="60" as="geometry"/>
                </mxCell>
                <mxCell id="31" value="START" style="ellipse;whiteSpace=wrap;html=1;" vertex="1" parent="1">
                    <mxGeometry x="365" y="1280" width="120" height="80" as="geometry"/>
                </mxCell>
                <mxCell id="33" value="Calculates the average of the center elements of the array" style="text;html=1;align=center;verticalAlign=middle;resizable=0;points=[];autosize=1;strokeColor=none;fillColor=none;" vertex="1" parent="1">
                    <mxGeometry x="20" y="1305" width="330" height="30" as="geometry"/>
                </mxCell>
            </root>
        </mxGraphModel>
    </diagram>
</mxfile>